# xmcd
#
# Track frame offsets:
#	150
#	18140
#	35296
#
# Disc length: 637 seconds
#
# Revision: 1
# Processed by: cddbd v1.5.1PL0 Copyright (c) Steve Scherf et al.
# Submitted via: EasyCDDAExtractor 8.2.1.1
#
DISCID=14027b03
DTITLE=аябамитайг екеухеяиа - тяиа тяацоудиа
DYEAR=2003
DGENRE=емтевмо
TTITLE0=паы ма пиасы оуяамо
TTITLE1=ои жикои лоу дем се ацапоум
TTITLE2=текос дем упаявеи еды
EXTD=
EXTT0=
EXTT1=
EXTT2=
PLAYORDER=
